<?xml version="1.0" encoding="utf-8"?>
<!-- Generator: Adobe Illustrator 23.0.1, SVG Export Plug-In . SVG Version: 6.00 Build 0)  -->
<svg version="1.1" id="Layer_1" xmlns="http://www.w3.org/2000/svg" xmlns:xlink="http://www.w3.org/1999/xlink" x="0px" y="0px"
	 viewBox="0 0 1366 602" style="enable-background:new 0 0 1366 602;" xml:space="preserve">
<style type="text/css">
	.st0{fill:#76BB4C;stroke:#F9F8F7;stroke-width:3.2636;stroke-miterlimit:10;}
	.st1{fill:#76BB4C;stroke:#F9F8F7;stroke-width:6;stroke-miterlimit:10;}
	.st2{fill:#FFFFFF;}
	.st3{fill:#F89839;}
	.st4{fill:#F89839;stroke:#F7F6F5;stroke-width:2.5016;stroke-miterlimit:10;}
	.st5{font-family:'Saigonese';}
	.st6{font-size:201.1374px;}
</style>
<path class="st0" d="M232.96,185.62c0,55.53-45.38,100.55-101.37,100.55S7.67,236.36,30.22,185.62C45,152.38,2.96,85.33,26.12,90.82
	c79.62,18.88,75.28-5.75,105.47-5.75C187.57,85.07,232.96,130.09,232.96,185.62z"/>
<path class="st1" d="M268.15,225.45c-55.26-5.96-95.18-55.95-89.17-111.66c6.01-55.71,62.86-117.97,110.93-90.08
	c31.49,18.27,102.73-16.37,94.78,6.09c-27.33,77.2-2.36,75.53-5.6,105.57C373.07,191.08,323.41,231.41,268.15,225.45z"/>
<circle class="st2" cx="286.18" cy="330.12" r="73.25"/>
<circle class="st3" cx="284.34" cy="217.05" r="134.61"/>
<circle class="st3" cx="401.71" cy="329.5" r="134.61"/>
<circle class="st3" cx="284.34" cy="441.95" r="134.61"/>
<circle class="st3" cx="170.25" cy="328.85" r="134.61"/>
<path class="st4" d="M521.34,327.86c0-64.95-48.93-118.44-111.93-125.69c-9.58-60.41-61.88-106.59-124.98-106.59
	c-64.32,0-117.4,48-125.46,110.13C97.7,214.53,50.61,267.23,50.61,330.95c0,64.05,47.59,116.96,109.34,125.36
	c10.71,59.04,62.35,103.83,124.48,103.83c63.1,0,115.4-46.18,124.98-106.59C472.41,446.3,521.34,392.81,521.34,327.86z"/>
<circle class="st2" cx="286.18" cy="330.12" r="19.01"/>
<ellipse transform="matrix(0.7071 -0.7071 0.7071 0.7071 -72.9263 331.9507)" class="st2" cx="364.24" cy="254.01" rx="36.27" ry="6.29"/>
<ellipse transform="matrix(0.7071 -0.7071 0.7071 0.7071 -232.5416 265.8359)" class="st2" cx="204.62" cy="413.62" rx="36.27" ry="6.29"/>
<ellipse transform="matrix(0.7071 -0.7071 0.7071 0.7071 -116.5439 218.9794)" class="st2" cx="206.06" cy="250.17" rx="6.29" ry="36.27"/>
<ellipse transform="matrix(0.7071 -0.7071 0.7071 0.7071 -182.6587 378.5946)" class="st2" cx="365.67" cy="409.79" rx="6.29" ry="36.27"/>
<ellipse class="st2" cx="286.61" cy="220.89" rx="6.29" ry="36.27"/>
<ellipse class="st2" cx="286.61" cy="446.62" rx="6.29" ry="36.27"/>
<ellipse class="st2" cx="170.08" cy="330.03" rx="36.27" ry="6.29"/>
<ellipse class="st2" cx="395.81" cy="330.03" rx="36.27" ry="6.29"/>
<text transform="matrix(1.0382 0 0 1 553.5713 238.4756)"><tspan x="0" y="0" class="st3 st5 st6">Ngon Lạ </tspan><tspan x="0" y="288.56" class="st3 st5 st6">Đà Lạt</tspan></text>
</svg>
