
<?xml version="1.0" encoding="UTF-8" standalone="no"?>
<svg
   xmlns:dc="http://purl.org/dc/elements/1.1/"
   xmlns:cc="http://creativecommons.org/ns#"
   xmlns:rdf="http://www.w3.org/1999/02/22-rdf-syntax-ns#"
   xmlns:svg="http://www.w3.org/2000/svg"
   xmlns="http://www.w3.org/2000/svg"
   viewBox="0 0 352.56628 518.17779"
   height="29"
   width="30"
   xml:space="preserve"
   id="svg2"
   version="1.1"><metadata
     id="metadata8"><rdf:RDF><cc:Work
         rdf:about=""><dc:format>image/svg+xml</dc:format><dc:type
           rdf:resource="http://purl.org/dc/dcmitype/StillImage" /></cc:Work></rdf:RDF></metadata><defs
     id="defs6"><clipPath
       id="clipPath18"
       clipPathUnits="userSpaceOnUse"><path
         id="path16"
         d="M 0,595.276 H 841.89 V 0 H 0 Z" /></clipPath></defs><g
     transform="matrix(1.3333333,0,0,-1.3333333,-272.64195,672.22742)"
     id="g10"><g
       id="g12"><g
         clip-path="url(#clipPath18)"
         id="g14"><g
           transform="translate(314.8071,415.439)"
           id="g20"><path
             id="path22"
             style="fill:#76bb4c;fill-opacity:1;fill-rule:nonzero;stroke:none"
             d="m 0,0 c 0,-28.208 -23.054,-51.075 -51.492,-51.075 -28.438,0 -62.947,25.299 -51.491,51.075 7.505,16.886 -13.849,50.945 -2.085,48.156 40.443,-9.59 38.239,2.918 53.576,2.918 C -23.054,51.074 0,28.208 0,0" /></g><g
           transform="translate(314.8071,415.439)"
           id="g24"><path
             id="path26"
             style="fill:none;stroke:#f9f8f7;stroke-width:3.26399994;stroke-linecap:butt;stroke-linejoin:miter;stroke-miterlimit:10;stroke-dasharray:none;stroke-opacity:1"
             d="m 0,0 c 0,-28.208 -23.054,-51.075 -51.492,-51.075 -28.438,0 -62.947,25.299 -51.491,51.075 7.505,16.886 -13.849,50.945 -2.085,48.156 40.443,-9.59 38.239,2.918 53.576,2.918 C -23.054,51.074 0,28.208 0,0 Z" /></g><g
           transform="translate(332.6841,395.207)"
           id="g28"><path
             id="path30"
             style="fill:#76bb4c;fill-opacity:1;fill-rule:nonzero;stroke:none"
             d="m 0,0 c -28.07,3.027 -48.351,28.422 -45.299,56.722 3.052,28.299 31.93,59.924 56.351,45.758 15.998,-9.281 52.183,8.313 48.145,-3.094 C 45.313,60.17 57.997,61.021 56.351,45.758 53.299,17.459 28.07,-3.027 0,0" /></g><g
           transform="translate(332.6841,395.207)"
           id="g32"><path
             id="path34"
             style="fill:none;stroke:#f9f8f7;stroke-width:6;stroke-linecap:butt;stroke-linejoin:miter;stroke-miterlimit:10;stroke-dasharray:none;stroke-opacity:1"
             d="m 0,0 c -28.07,3.027 -48.351,28.422 -45.299,56.722 3.052,28.299 31.93,59.924 56.351,45.758 15.998,-9.281 52.183,8.313 48.145,-3.094 C 45.313,60.17 57.997,61.021 56.351,45.758 53.299,17.459 28.07,-3.027 0,0 Z" /></g><g
           transform="translate(379.0562,342.0381)"
           id="g36"><path
             id="path38"
             style="fill:#ffffff;fill-opacity:1;fill-rule:nonzero;stroke:none"
             d="m 0,0 c 0,-20.551 -16.66,-37.211 -37.211,-37.211 -20.552,0 -37.211,16.66 -37.211,37.211 0,20.551 16.659,37.211 37.211,37.211 C -16.66,37.211 0,20.551 0,0" /></g><g
           transform="translate(409.2842,399.4707)"
           id="g40"><path
             id="path42"
             style="fill:#f89839;fill-opacity:1;fill-rule:nonzero;stroke:none"
             d="m 0,0 c 0,-37.764 -30.614,-68.377 -68.377,-68.377 -37.764,0 -68.377,30.613 -68.377,68.377 0,37.764 30.613,68.377 68.377,68.377 C -30.614,68.377 0,37.764 0,0" /></g><g
           transform="translate(468.9062,342.3506)"
           id="g44"><path
             id="path46"
             style="fill:#f89839;fill-opacity:1;fill-rule:nonzero;stroke:none"
             d="m 0,0 c 0,-37.764 -30.614,-68.377 -68.378,-68.377 -37.764,0 -68.377,30.613 -68.377,68.377 0,37.764 30.613,68.377 68.377,68.377 C -30.614,68.377 0,37.764 0,0" /></g><g
           transform="translate(409.2842,285.2305)"
           id="g48"><path
             id="path50"
             style="fill:#f89839;fill-opacity:1;fill-rule:nonzero;stroke:none"
             d="m 0,0 c 0,-37.764 -30.614,-68.377 -68.377,-68.377 -37.764,0 -68.377,30.613 -68.377,68.377 0,37.764 30.613,68.377 68.377,68.377 C -30.614,68.377 0,37.764 0,0" /></g><g
           transform="translate(351.3301,342.6831)"
           id="g52"><path
             id="path54"
             style="fill:#f89839;fill-opacity:1;fill-rule:nonzero;stroke:none"
             d="m 0,0 c 0,-37.764 -30.613,-68.377 -68.377,-68.377 -37.764,0 -68.377,30.613 -68.377,68.377 0,37.764 30.613,68.377 68.377,68.377 C -30.613,68.377 0,37.764 0,0" /></g><g
           transform="translate(461.3018,343.1846)"
           id="g56"><path
             id="path58"
             style="fill:#f89839;fill-opacity:1;fill-rule:nonzero;stroke:none"
             d="m 0,0 c 0,32.992 -24.856,60.163 -56.86,63.848 -4.865,30.685 -31.432,54.145 -63.485,54.145 -32.676,0 -59.637,-24.384 -63.731,-55.944 -31.125,-4.483 -55.046,-31.251 -55.046,-63.617 0,-32.537 24.177,-59.411 55.542,-63.68 5.442,-29.993 31.673,-52.744 63.235,-52.744 32.053,0 58.62,23.46 63.485,54.144 C -24.856,-60.163 0,-32.991 0,0" /></g><g
           transform="translate(461.3018,343.1846)"
           id="g60"><path
             id="path62"
             style="fill:none;stroke:#f7f6f5;stroke-width:2.50200009;stroke-linecap:butt;stroke-linejoin:miter;stroke-miterlimit:10;stroke-dasharray:none;stroke-opacity:1"
             d="m 0,0 c 0,32.992 -24.856,60.163 -56.86,63.848 -4.865,30.685 -31.432,54.145 -63.485,54.145 -32.676,0 -59.637,-24.384 -63.731,-55.944 -31.125,-4.483 -55.046,-31.251 -55.046,-63.617 0,-32.537 24.177,-59.411 55.542,-63.68 5.442,-29.993 31.673,-52.744 63.235,-52.744 32.053,0 58.62,23.46 63.485,54.144 C -24.856,-60.163 0,-32.991 0,0 Z" /></g><g
           transform="translate(351.5,342.0381)"
           id="g64"><path
             id="path66"
             style="fill:#ffffff;fill-opacity:1;fill-rule:nonzero;stroke:none"
             d="m 0,0 c 0,-5.333 -4.323,-9.655 -9.655,-9.655 -5.332,0 -9.655,4.322 -9.655,9.655 0,5.333 4.323,9.655 9.655,9.655 C -4.323,9.655 0,5.333 0,0" /></g><g
           transform="translate(383.7524,378.4424)"
           id="g68"><path
             id="path70"
             style="fill:#ffffff;fill-opacity:1;fill-rule:nonzero;stroke:none"
             d="m 0,0 c -7.194,-7.194 -14.038,-12.016 -15.285,-10.769 -1.247,1.248 3.575,8.091 10.769,15.285 C 2.678,11.71 9.521,16.532 10.769,15.285 12.016,14.038 7.194,7.194 0,0" /></g><g
           transform="translate(302.6714,297.3618)"
           id="g72"><path
             id="path74"
             style="fill:#ffffff;fill-opacity:1;fill-rule:nonzero;stroke:none"
             d="m 0,0 c -7.194,-7.194 -14.037,-12.015 -15.284,-10.768 -1.247,1.247 3.574,8.09 10.768,15.284 C 2.679,11.71 9.521,16.531 10.769,15.285 12.016,14.038 7.194,7.194 0,0" /></g><g
           transform="translate(303.4019,384.9062)"
           id="g76"><path
             id="path78"
             style="fill:#ffffff;fill-opacity:1;fill-rule:nonzero;stroke:none"
             d="M 0,0 C 7.194,-7.194 12.016,-14.037 10.769,-15.284 9.521,-16.531 2.679,-11.71 -4.516,-4.516 -11.71,2.679 -16.531,9.521 -15.284,10.769 -14.037,12.016 -7.194,7.194 0,0" /></g><g
           transform="translate(384.4829,303.8257)"
           id="g80"><path
             id="path82"
             style="fill:#ffffff;fill-opacity:1;fill-rule:nonzero;stroke:none"
             d="M 0,0 C 7.194,-7.195 12.016,-14.038 10.769,-15.285 9.521,-16.532 2.678,-11.71 -4.516,-4.516 -11.71,2.678 -16.532,9.521 -15.285,10.769 -14.038,12.016 -7.194,7.194 0,0" /></g><g
           transform="translate(345.2544,397.52)"
           id="g84"><path
             id="path86"
             style="fill:#ffffff;fill-opacity:1;fill-rule:nonzero;stroke:none"
             d="m 0,0 c 0,-10.174 -1.43,-18.422 -3.193,-18.422 -1.764,0 -3.194,8.248 -3.194,18.422 0,10.174 1.43,18.422 3.194,18.422 C -1.43,18.422 0,10.174 0,0" /></g><g
           transform="translate(345.2544,282.8545)"
           id="g88"><path
             id="path90"
             style="fill:#ffffff;fill-opacity:1;fill-rule:nonzero;stroke:none"
             d="m 0,0 c 0,-10.175 -1.43,-18.422 -3.193,-18.422 -1.764,0 -3.194,8.247 -3.194,18.422 0,10.174 1.43,18.422 3.194,18.422 C -1.43,18.422 0,10.174 0,0" /></g><g
           transform="translate(282.8672,345.2744)"
           id="g92"><path
             id="path94"
             style="fill:#ffffff;fill-opacity:1;fill-rule:nonzero;stroke:none"
             d="m 0,0 c 10.174,0 18.422,-1.43 18.422,-3.193 0,-1.764 -8.248,-3.194 -18.422,-3.194 -10.174,0 -18.422,1.43 -18.422,3.194 C -18.422,-1.43 -10.174,0 0,0" /></g><g
           transform="translate(397.5327,345.2744)"
           id="g96"><path
             id="path98"
             style="fill:#ffffff;fill-opacity:1;fill-rule:nonzero;stroke:none"
             d="m 0,0 c 10.174,0 18.422,-1.43 18.422,-3.193 0,-1.764 -8.248,-3.194 -18.422,-3.194 -10.174,0 -18.422,1.43 -18.422,3.194 C -18.422,-1.43 -10.174,0 0,0" /></g></g></g><text
       id="text116"
       style="font-variant:normal;font-weight:100;font-stretch:normal;font-size:32.32770157px;font-family:Saigonese;-inkscape-font-specification:Saigonese;writing-mode:lr-tb;fill:#f89839;fill-opacity:1;fill-rule:nonzero;stroke:none"
       transform="matrix(1,0,0,-0.96318946,271.667,165.9707)"><tspan
         id="tspan100"
         y="0"
         x="0 28.38372 55.975414 83.615593 111.99931 124.63945 142.04791 169.6881">Ngon Lạ </tspan><tspan
         id="tspan102"
         y="46.390247"
         x="0 30.388039 57.995895 70.636024 88.044495 113.33445">Đà Lạt</tspan><tspan
         id="tspan104"
         y="-0.1616385"
         x="0.6788817 29.062603 56.654293 84.294479 112.6782 125.31833 142.72679 170.36697">Ngon Lạ </tspan><tspan
         id="tspan106"
         y="46.228611"
         x="0.6788817 31.066919 58.674774 71.314903 88.723373 114.01333">Đà Lạt</tspan><tspan
         id="tspan108"
         y="0.19396619"
         x="1.0021586 29.38588 56.97757 84.617752 113.00147 125.64161 143.05008 170.69026">Ngon Lạ </tspan><tspan
         id="tspan110"
         y="46.584217"
         x="1.0021586 31.390196 58.981888 71.622017 89.030487 114.32044">Đà Lạt</tspan><tspan
         id="tspan112"
         y="0.8405202"
         x="0.38793239 28.771652 56.363346 84.003525 112.38725 125.02738 142.43585 170.07603">Ngon Lạ </tspan><tspan
         id="tspan114"
         y="47.23077"
         x="0.38793239 30.77597 58.383827 71.023956 88.432426 113.72238">Đà Lạt</tspan></text>
</g></svg>
